<svg xmlns="http://www.w3.org/2000/svg" width="800" height="600" viewBox="0 0 800 600"><rect width="100%" height="100%" fill="#A52A2A"/><path fill="#FFFFFF" d="M177.43 322.93h26.87v10.32h-39.38v-67.24h12.51v56.92Zm43.06-19.02h21.66q0-2.23-.62-4.21-.63-1.98-1.89-3.46-1.25-1.49-3.18-2.35-1.93-.86-4.49-.86-4.97 0-7.83 2.83-2.86 2.84-3.65 8.05Zm29.29 6.93h-29.53q.28 3.67 1.3 6.34 1.03 2.68 2.7 4.42 1.68 1.75 3.98 2.61 2.3.86 5.09.86t4.81-.65q2.02-.66 3.54-1.45 1.51-.79 2.65-1.44 1.14-.65 2.21-.65 1.44 0 2.13 1.07l3.31 4.19q-1.91 2.23-4.28 3.74-2.37 1.51-4.95 2.42-2.59.9-5.26 1.28-2.67.37-5.18.37-4.98 0-9.26-1.65-4.28-1.65-7.44-4.89-3.16-3.23-4.97-7.99-1.82-4.77-1.82-11.05 0-4.88 1.58-9.18 1.59-4.3 4.54-7.49 2.95-3.18 7.21-5.04 4.25-1.86 9.6-1.86 4.51 0 8.32 1.44 3.81 1.44 6.56 4.21 2.74 2.76 4.3 6.79 1.56 4.02 1.56 9.18 0 2.6-.56 3.51-.56.91-2.14.91Zm36.5 10.09v-8.05q-4.97.24-8.37.86-3.39.63-5.44 1.61-2.04.97-2.93 2.28-.88 1.3-.88 2.83 0 3.02 1.79 4.33 1.79 1.3 4.67 1.3 3.54 0 6.12-1.28t5.04-3.88Zm-24.27-25.07-2.05-3.67q8.23-7.53 19.81-7.53 4.19 0 7.49 1.37t5.58 3.81q2.28 2.44 3.46 5.84 1.19 3.39 1.19 7.44v30.13h-5.21q-1.63 0-2.51-.49-.88-.49-1.39-1.97l-1.03-3.45q-1.81 1.63-3.53 2.86-1.72 1.24-3.58 2.07-1.86.84-3.98 1.28-2.11.44-4.67.44-3.02 0-5.58-.81t-4.42-2.44q-1.86-1.63-2.88-4.05-1.02-2.41-1.02-5.62 0-1.82.6-3.61.6-1.79 1.98-3.41 1.37-1.63 3.55-3.07 2.19-1.44 5.37-2.51 3.19-1.07 7.42-1.75 4.23-.67 9.67-.81v-2.79q0-4.79-2.04-7.09-2.05-2.3-5.91-2.3-2.79 0-4.63.65-1.83.65-3.23 1.46-1.39.81-2.53 1.47-1.14.65-2.54.65-1.2 0-2.04-.63-.84-.63-1.35-1.47Zm56.4-7.44.7 5.4q2.23-4.28 5.3-6.72 3.07-2.44 7.26-2.44 3.3 0 5.3 1.44l-.75 8.6q-.23.84-.67 1.19-.44.35-1.19.35-.69 0-2.07-.24-1.37-.23-2.67-.23-1.91 0-3.39.56-1.49.56-2.68 1.6-1.18 1.05-2.09 2.54-.91 1.49-1.7 3.39v29.39h-11.48v-47.71h6.74q1.77 0 2.46.63.7.63.93 2.25Zm34.51-.79.79 3.77q1.44-1.44 3.04-2.67 1.61-1.24 3.4-2.1 1.79-.86 3.83-1.34 2.05-.49 4.47-.49 3.9 0 6.93 1.32 3.02 1.33 5.04 3.72 2.02 2.4 3.07 5.72 1.05 3.33 1.05 7.33v30.36h-11.49v-30.36q0-4.38-2-6.77-2-2.39-6.09-2.39-2.98 0-5.58 1.34-2.6 1.35-4.93 3.68v34.5h-11.48v-47.71h7.02q2.23 0 2.93 2.09Zm130.38-21.62h9.44v67.24h-11.02v-43.43q0-2.6.28-5.63l-20.32 38.18q-1.44 2.74-4.42 2.74h-1.76q-2.98 0-4.42-2.74l-20.55-38.32q.14 1.54.23 3.03.09 1.48.09 2.74v43.43h-11.02v-67.24h9.44q.84 0 1.44.05.61.04 1.09.23.49.19.89.6.39.42.77 1.12l20.13 37.34q.79 1.49 1.46 3.07.68 1.58 1.33 3.25.65-1.72 1.35-3.32.7-1.6 1.49-3.09l19.85-37.25q.37-.7.79-1.12.42-.41.91-.6.49-.19 1.09-.23.61-.05 1.44-.05Zm43.71 18.79q5.3 0 9.65 1.72 4.35 1.72 7.44 4.88 3.09 3.16 4.77 7.72 1.67 4.56 1.67 10.18 0 5.68-1.67 10.23-1.68 4.56-4.77 7.77t-7.44 4.93q-4.35 1.72-9.65 1.72-5.34 0-9.72-1.72-4.37-1.72-7.46-4.93t-4.79-7.77q-1.7-4.55-1.7-10.23 0-5.62 1.7-10.18t4.79-7.72q3.09-3.16 7.46-4.88 4.38-1.72 9.72-1.72Zm0 40.31q5.96 0 8.82-4 2.85-4 2.85-11.71 0-7.72-2.85-11.77-2.86-4.04-8.82-4.04-6.04 0-8.95 4.06-2.9 4.07-2.9 11.75 0 7.67 2.9 11.69 2.91 4.02 8.95 4.02Zm42.46-36.69.7 5.4q2.23-4.28 5.3-6.72 3.07-2.44 7.25-2.44 3.3 0 5.3 1.44l-.74 8.6q-.24.84-.68 1.19-.44.35-1.18.35-.7 0-2.07-.24-1.37-.23-2.68-.23-1.9 0-3.39.56-1.49.56-2.67 1.6-1.19 1.05-2.1 2.54-.9 1.49-1.69 3.39v29.39h-11.49v-47.71h6.74q1.77 0 2.47.63.7.63.93 2.25Zm33.62 15.49h21.67q0-2.23-.63-4.21t-1.88-3.46q-1.26-1.49-3.19-2.35-1.93-.86-4.49-.86-4.97 0-7.83 2.83-2.86 2.84-3.65 8.05Zm29.29 6.93h-29.53q.28 3.67 1.31 6.34 1.02 2.68 2.69 4.42 1.68 1.75 3.98 2.61 2.3.86 5.09.86t4.81-.65q2.03-.66 3.54-1.45 1.51-.79 2.65-1.44 1.14-.65 2.21-.65 1.44 0 2.14 1.07l3.3 4.19q-1.91 2.23-4.28 3.74-2.37 1.51-4.95 2.42-2.58.9-5.26 1.28-2.67.37-5.18.37-4.98 0-9.26-1.65-4.27-1.65-7.44-4.89-3.16-3.23-4.97-7.99-1.81-4.77-1.81-11.05 0-4.88 1.58-9.18t4.53-7.49q2.95-3.18 7.21-5.04 4.25-1.86 9.6-1.86 4.51 0 8.32 1.44 3.82 1.44 6.56 4.21 2.74 2.76 4.3 6.79 1.56 4.02 1.56 9.18 0 2.6-.56 3.51-.56.91-2.14.91Z"/></svg>