<svg xmlns="http://www.w3.org/2000/svg" width="600" height="800" viewBox="0 0 600 800"><rect width="100%" height="100%" fill="#800080"/><path fill="#FFFFFF" d="M135.24 400.665h8.34q3.07 0 5.36-.77 2.28-.76 3.79-2.2 1.52-1.43 2.27-3.48.74-2.06.74-4.59 0-2.4-.74-4.35-.75-1.96-2.24-3.32-1.5-1.37-3.78-2.1t-5.4-.73h-8.34v21.54Zm-11.16-30.17h19.5q6.02 0 10.42 1.41t7.26 3.94q2.87 2.54 4.26 6.06 1.39 3.53 1.39 7.72 0 4.36-1.46 7.99-1.45 3.63-4.35 6.25-2.91 2.61-7.29 4.06-4.37 1.46-10.23 1.46h-8.34v21.12h-11.16v-60.01Zm58.8 20 .63 4.82q1.99-3.82 4.73-6t6.47-2.18q2.95 0 4.73 1.29l-.66 7.68q-.21.74-.6 1.05-.4.32-1.06.32-.62 0-1.85-.21-1.22-.21-2.38-.21-1.71 0-3.03.5-1.33.5-2.39 1.43-1.06.93-1.87 2.26-.81 1.33-1.51 3.03v26.23h-10.25v-42.58h6.02q1.57 0 2.19.56.63.56.83 2.01Zm40.76-3.23q4.73 0 8.61 1.53 3.88 1.54 6.64 4.36 2.76 2.82 4.25 6.89 1.5 4.07 1.5 9.09 0 5.06-1.5 9.13-1.49 4.06-4.25 6.93-2.76 2.86-6.64 4.4-3.88 1.53-8.61 1.53-4.77 0-8.68-1.53-3.9-1.54-6.66-4.4-2.76-2.87-4.27-6.93-1.52-4.07-1.52-9.13 0-5.02 1.52-9.09 1.51-4.07 4.27-6.89 2.76-2.82 6.66-4.36 3.91-1.53 8.68-1.53Zm0 35.98q5.31 0 7.86-3.57 2.55-3.57 2.55-10.46 0-6.89-2.55-10.5-2.55-3.61-7.86-3.61-5.4 0-7.99 3.63t-2.59 10.48q0 6.85 2.59 10.44t7.99 3.59Zm55.57-5.36v-19.09q-1.75-2.11-3.8-2.98-2.06-.88-4.42-.88-2.32 0-4.19.88-1.87.87-3.2 2.63-1.33 1.76-2.03 4.48-.71 2.72-.71 6.41 0 3.74.6 6.33.61 2.6 1.73 4.24 1.12 1.64 2.74 2.36 1.61.73 3.61.73 3.19 0 5.43-1.33 2.24-1.33 4.24-3.78Zm0-49.05h10.25v61.67h-6.27q-2.03 0-2.57-1.87l-.87-4.11q-2.58 2.95-5.92 4.78-3.34 1.82-7.78 1.82-3.49 0-6.39-1.45-2.91-1.45-5-4.21-2.1-2.76-3.24-6.83-1.14-4.07-1.14-9.3 0-4.73 1.29-8.79 1.28-4.07 3.69-7.06 2.41-2.99 5.77-4.67 3.36-1.68 7.55-1.68 3.57 0 6.1 1.12t4.53 3.03v-22.45Zm46.81 19.09h10.25v42.58H330q-2.03 0-2.57-1.87l-.71-3.4q-2.61 2.66-5.76 4.29-3.16 1.64-7.43 1.64-3.49 0-6.17-1.18-2.67-1.18-4.5-3.34-1.82-2.16-2.76-5.12-.93-2.97-.93-6.54v-27.06h10.25v27.06q0 3.9 1.8 6.04 1.81 2.13 5.42 2.13 2.66 0 4.98-1.18 2.32-1.18 4.4-3.26v-30.79Zm53.57 5.27-2.69 3.74q-.46.58-.9.91-.43.33-1.26.33-.79 0-1.54-.48-.74-.47-1.78-1.07-1.04-.61-2.47-1.08-1.43-.48-3.55-.48-2.7 0-4.73.97-2.03.98-3.38 2.81-1.35 1.82-2.01 4.42-.67 2.59-.67 5.87 0 3.4.73 6.06.72 2.65 2.09 4.46 1.37 1.8 3.32 2.74 1.95.93 4.4.93t3.97-.6q1.51-.6 2.55-1.33 1.04-.73 1.8-1.33.77-.6 1.73-.6 1.24 0 1.86.96l2.95 3.73q-1.7 1.99-3.69 3.34-2 1.35-4.13 2.16-2.14.81-4.4 1.14-2.26.33-4.5.33-3.95 0-7.43-1.47-3.49-1.47-6.1-4.3-2.62-2.82-4.13-6.91-1.52-4.08-1.52-9.31 0-4.69 1.35-8.7 1.35-4 3.96-6.93 2.62-2.92 6.48-4.58 3.86-1.66 8.88-1.66 4.77 0 8.36 1.53 3.59 1.54 6.45 4.4Zm21 37.97q-5.56 0-8.52-3.13-2.97-3.13-2.97-8.65v-23.78h-4.36q-.83 0-1.41-.54t-.58-1.62v-4.07l6.85-1.12 2.15-11.62q.21-.83.79-1.28.58-.46 1.5-.46h5.31v13.4h11.37v7.31h-11.37v23.07q0 1.99.97 3.12.98 1.12 2.68 1.12.96 0 1.6-.23.64-.23 1.12-.48.48-.25.85-.48.37-.23.75-.23.45 0 .74.23t.63.69l3.07 4.98q-2.24 1.86-5.15 2.82-2.9.95-6.02.95Zm50.76-51.37-2.12 12.49q1.99-.42 3.82-.6 1.83-.19 3.53-.19 4.73 0 8.34 1.41 3.61 1.41 6.06 3.9 2.45 2.49 3.69 5.83 1.25 3.34 1.25 7.2 0 4.78-1.68 8.72-1.69 3.94-4.67 6.74-2.99 2.8-7.08 4.34-4.09 1.53-8.9 1.53-2.82 0-5.35-.58-2.54-.58-4.76-1.55-2.22-.98-4.1-2.24-1.89-1.27-3.39-2.68l3.16-4.36q.99-1.41 2.61-1.41 1.04 0 2.12.66 1.08.67 2.47 1.46 1.39.79 3.28 1.45 1.88.66 4.54.66 2.82 0 4.98-.91 2.16-.91 3.59-2.55 1.43-1.64 2.16-3.9.72-2.26.72-4.92 0-4.9-2.84-7.66t-8.4-2.76q-4.28 0-8.76 1.58l-6.39-1.83 4.98-29.13h29.63v4.36q0 2.2-1.37 3.57-1.37 1.37-4.65 1.37h-16.47Z"/></svg>