<svg xmlns="http://www.w3.org/2000/svg" width="150" height="100" viewBox="0 0 150 100"><rect width="100%" height="100%" fill="#A52A2A"/><path fill="#FFFFFF" d="M34.935 56.825h3.54q.98 0 1.64-.23.66-.24 1.06-.63.39-.39.57-.91.18-.52.18-1.1 0-.61-.2-1.1-.19-.49-.61-.83-.42-.35-1.07-.53-.66-.18-1.58-.18h-3.53v5.51Zm2.98-13.36h-2.98v5.43h2.79q1.79 0 2.71-.65.91-.65.91-2.07 0-1.47-.83-2.09-.83-.62-2.6-.62Zm-6.47-2.71h6.47q1.85 0 3.16.35t2.15 1q.84.65 1.23 1.58.39.92.39 2.08 0 .66-.19 1.26-.2.61-.61 1.14-.41.52-1.04.95-.63.43-1.5.73 3.87.87 3.87 4.18 0 1.2-.45 2.21-.46 1.02-1.33 1.75-.87.74-2.14 1.15-1.28.42-2.91.42h-7.1v-18.8Zm19.45 6.27.19 1.51q.62-1.2 1.48-1.88.86-.69 2.03-.69.92 0 1.48.41l-.21 2.4q-.06.24-.18.33-.13.1-.34.1-.19 0-.57-.06-.39-.07-.75-.07-.53 0-.95.16-.42.15-.75.45-.33.29-.58.7-.26.42-.48.95v8.22h-3.21v-13.34h1.89q.49 0 .69.18.19.17.26.63Zm13.91 9.08v-2.24q-1.4.06-2.34.24-.95.17-1.53.44-.57.28-.81.64-.25.37-.25.79 0 .85.5 1.21.5.37 1.31.37.98 0 1.71-.36.72-.36 1.41-1.09Zm-6.79-7-.57-1.03q2.3-2.11 5.54-2.11 1.17 0 2.09.39.92.38 1.56 1.06.64.69.97 1.64.33.94.33 2.08v8.42h-1.46q-.45 0-.7-.14-.25-.13-.39-.55l-.29-.96q-.5.45-.98.8-.48.34-1 .58-.52.23-1.12.35-.59.13-1.3.13-.85 0-1.56-.23-.72-.23-1.24-.68-.52-.46-.8-1.13-.29-.68-.29-1.58 0-.5.17-1t.55-.96q.39-.45 1-.86.61-.4 1.5-.7.89-.3 2.07-.49 1.18-.19 2.71-.22v-.78q0-1.34-.58-1.99-.57-.64-1.65-.64-.78 0-1.29.18t-.9.41q-.39.23-.71.41-.32.18-.71.18-.34 0-.57-.17-.24-.18-.38-.41Zm15.72-2.3.22 1.05q.4-.4.85-.75.45-.34.95-.58.5-.24 1.07-.38.57-.14 1.25-.14 1.09 0 1.94.37.84.37 1.41 1.04.56.67.85 1.6.3.93.3 2.05v8.49h-3.21v-8.49q0-1.22-.56-1.89-.56-.67-1.71-.67-.83 0-1.56.38-.72.37-1.37 1.02v9.65h-3.22v-13.34h1.97q.62 0 .82.59Zm20.25 8.8v-5.98q-.55-.67-1.19-.94-.64-.27-1.38-.27-.73 0-1.32.27-.58.27-1 .83-.41.55-.63 1.4-.23.85-.23 2.01 0 1.17.19 1.98t.54 1.33q.35.51.86.74.51.23 1.13.23 1 0 1.7-.42.71-.42 1.33-1.18Zm0-15.37h3.21v19.32h-1.96q-.64 0-.81-.59l-.27-1.28q-.81.92-1.85 1.49-1.05.58-2.44.58-1.09 0-2-.46-.91-.46-1.57-1.32-.66-.86-1.01-2.14-.36-1.27-.36-2.91 0-1.48.4-2.76.41-1.27 1.16-2.21.75-.93 1.81-1.46 1.05-.53 2.36-.53 1.12 0 1.91.36.8.35 1.42.94v-7.03Zm21.19 16.91h3.38v2.41h-10.4v-2.41h3.81v-10.95q0-.65.04-1.34l-2.71 2.26q-.23.18-.46.23-.22.04-.43 0-.2-.04-.35-.13-.16-.1-.24-.22l-1.01-1.39 5.73-4.87h2.64v16.41Z"/></svg>