<svg xmlns="http://www.w3.org/2000/svg" width="600" height="400" viewBox="0 0 600 400"><rect width="100%" height="100%" fill="#FFA500"/><path fill="#FFFFFF" d="M136.76 223.085H149q3.38 0 5.67-.81 2.3-.81 3.67-2.16t1.98-3.15q.61-1.8.61-3.82 0-2.12-.68-3.81-.67-1.68-2.11-2.88-1.44-1.19-3.72-1.82-2.27-.63-5.46-.63h-12.2v19.08Zm10.31-46.26h-10.31v18.81h9.63q6.21 0 9.38-2.25 3.18-2.25 3.18-7.15 0-5.09-2.88-7.25t-9-2.16Zm-22.41-9.36h22.41q6.39 0 10.93 1.22 4.55 1.21 7.45 3.46 2.9 2.25 4.25 5.44 1.35 3.2 1.35 7.21 0 2.29-.67 4.38-.68 2.09-2.1 3.92-1.42 1.82-3.6 3.31-2.18 1.48-5.19 2.51 13.41 3.02 13.41 14.49 0 4.15-1.58 7.66-1.57 3.51-4.59 6.05-3.01 2.54-7.43 3.98-4.4 1.44-10.07 1.44h-24.57v-65.07Zm81.9 53.15v-7.79q-4.82.23-8.1.83-3.29.61-5.27 1.56-1.98.94-2.83 2.2-.86 1.26-.86 2.74 0 2.93 1.73 4.19 1.74 1.26 4.53 1.26 3.42 0 5.91-1.24 2.5-1.23 4.89-3.75Zm-23.49-24.26-1.98-3.55q7.96-7.29 19.17-7.29 4.05 0 7.24 1.32 3.2 1.33 5.4 3.69 2.21 2.37 3.35 5.65 1.15 3.29 1.15 7.2v29.16h-5.04q-1.57 0-2.43-.47-.85-.47-1.35-1.91l-.99-3.33q-1.75 1.57-3.42 2.76-1.66 1.2-3.46 2.01-1.8.8-3.85 1.23-2.05.43-4.52.43-2.93 0-5.4-.79-2.48-.78-4.28-2.36-1.8-1.57-2.79-3.91-.99-2.35-.99-5.45 0-1.75.59-3.49.58-1.73 1.91-3.31 1.33-1.57 3.44-2.96 2.12-1.4 5.2-2.43 3.08-1.04 7.18-1.69 4.09-.65 9.36-.79v-2.7q0-4.64-1.98-6.86-1.98-2.23-5.72-2.23-2.7 0-4.48.63-1.77.63-3.12 1.42-1.35.79-2.46 1.42-1.1.62-2.45.62-1.17 0-1.98-.6-.81-.61-1.3-1.42Zm54.4-7.96.77 3.64q1.39-1.39 2.94-2.59 1.56-1.19 3.29-2.02 1.73-.84 3.71-1.31 1.98-.47 4.32-.47 3.78 0 6.71 1.28 2.92 1.29 4.88 3.6 1.96 2.32 2.97 5.54 1.01 3.22 1.01 7.09v29.38h-11.11v-29.38q0-4.24-1.94-6.55-1.93-2.32-5.89-2.32-2.88 0-5.4 1.3-2.52 1.31-4.77 3.56v33.39h-11.12v-46.17h6.8q2.16 0 2.83 2.03Zm50.76 0 .77 3.64q1.39-1.39 2.94-2.59 1.56-1.19 3.29-2.02 1.73-.84 3.71-1.31 1.98-.47 4.32-.47 3.78 0 6.71 1.28 2.92 1.29 4.88 3.6 1.96 2.32 2.97 5.54 1.01 3.22 1.01 7.09v29.38h-11.11v-29.38q0-4.24-1.94-6.55-1.93-2.32-5.89-2.32-2.88 0-5.4 1.3-2.52 1.31-4.77 3.56v33.39H278.6v-46.17h6.8q2.16 0 2.83 2.03Zm49.91 15.75h20.97q0-2.16-.61-4.08-.61-1.91-1.82-3.35-1.22-1.44-3.09-2.27-1.86-.83-4.34-.83-4.81 0-7.58 2.74-2.77 2.74-3.53 7.79Zm28.35 6.7h-28.58q.27 3.56 1.26 6.14.99 2.59 2.61 4.28 1.62 1.69 3.85 2.52 2.23.83 4.93.83 2.7 0 4.65-.63 1.96-.63 3.42-1.4 1.47-.76 2.57-1.39 1.1-.63 2.13-.63 1.4 0 2.08 1.04l3.19 4.05q-1.84 2.16-4.14 3.62-2.29 1.46-4.79 2.34-2.5.88-5.09 1.24-2.58.35-5.01.35-4.82 0-8.96-1.59-4.14-1.6-7.2-4.73-3.06-3.13-4.81-7.74-1.76-4.61-1.76-10.68 0-4.73 1.53-8.89 1.53-4.17 4.39-7.25 2.86-3.08 6.97-4.88 4.12-1.8 9.3-1.8 4.36 0 8.05 1.4 3.69 1.39 6.35 4.07 2.65 2.68 4.16 6.57 1.51 3.89 1.51 8.89 0 2.51-.55 3.39-.53.88-2.06.88Zm20.74-21.69.67 5.22q2.16-4.14 5.14-6.5 2.97-2.36 7.01-2.36 3.2 0 5.13 1.39l-.72 8.33q-.22.81-.65 1.14-.43.34-1.15.34-.67 0-2-.23-1.33-.22-2.59-.22-1.84 0-3.28.54-1.44.54-2.59 1.55-1.15 1.02-2.02 2.46-.88 1.43-1.64 3.28v28.44h-11.12v-46.17h6.52q1.71 0 2.39.61.68.61.9 2.18Zm50.85-2.52-5.85-1.03q.67-4.68 2.61-8.22 1.93-3.53 4.84-5.89 2.9-2.37 6.66-3.56 3.75-1.19 8.07-1.19 4.5 0 8.13 1.28 3.62 1.29 6.18 3.56 2.57 2.27 3.94 5.33t1.37 6.62q0 3.1-.69 5.46-.7 2.37-2.01 4.12-1.3 1.76-3.24 2.97-1.93 1.22-4.36 2.03 5.85 1.84 8.73 5.62 2.88 3.78 2.88 9.5 0 4.85-1.8 8.59t-4.86 6.28q-3.06 2.54-7.09 3.85-4.03 1.3-8.53 1.3-4.9 0-8.54-1.12-3.65-1.13-6.35-3.33-2.7-2.21-4.59-5.4-1.89-3.2-3.24-7.39l4.9-2.02q1.94-.81 3.63-.43 1.68.38 2.45 1.83.81 1.57 1.78 3.1.96 1.53 2.31 2.72 1.36 1.19 3.18 1.94 1.82.74 4.34.74 2.84 0 4.95-.92 2.11-.92 3.53-2.41 1.42-1.49 2.12-3.31.69-1.82.69-3.67 0-2.34-.49-4.25-.49-1.91-2.07-3.26-1.58-1.35-4.52-2.11-2.95-.77-7.9-.77v-7.92q4.09-.04 6.79-.76 2.71-.72 4.3-2.01 1.6-1.28 2.23-3.08.63-1.8.63-3.96 0-4.59-2.57-6.97-2.56-2.39-6.84-2.39-1.98 0-3.64.56-1.67.57-2.99 1.58-1.33 1.01-2.23 2.36-.9 1.35-1.35 2.97-.77 2.07-2 2.75-1.24.67-3.49.31Z"/></svg>